<?xml version="1.0" encoding="utf-8"?>
<!-- Generator: Adobe Illustrator 19.1.0, SVG Export Plug-In . SVG Version: 6.00 Build 0)  -->
<svg version="1.1" id="Calque_1" xmlns="http://www.w3.org/2000/svg" xmlns:xlink="http://www.w3.org/1999/xlink" x="0px" y="0px"
	 viewBox="0 0 400 400" style="enable-background:new 0 0 400 400;" xml:space="preserve">
<style type="text/css">
	.st0{fill:#0D2240;}
	.st1{fill:#67C8F0;}
	.st2{fill:#FFFFFF;}
	.st3{opacity:0;fill:#FFFFFF;}
	.st4{fill:#C6C6C6;}
</style>
<g>
	<path class="st0" d="M285.5,212.4c63.2-11.3,106.7-34.6,106.7-61.5c0-13-10.1-25.1-27.5-35.4c13.4,9,20.9,19.3,20.9,30.2
		c0,25.4-41.2,47.4-101.1,58c-1.8-3.2-5-5.5-8.8-6.1c-5.4-20.2-13-41.7-22.6-63.6c-9.4-21.4-19.9-41.1-30.9-58.5
		c1.4-2,2.3-4.3,2.3-6.9c0-0.9-0.1-1.8-0.3-2.6c26.6-16.1,49.3-21.2,60.1-11.2c12.2,11.4,5.9,39.6-13.7,72.4
		C294,90,302.2,57.5,288.5,44.7c-12-11.2-38.1-4.6-68.3,14.7c-2.1-1.7-4.7-2.8-7.5-2.8c-1,0-1.9,0.2-2.8,0.4
		C180.1,15.7,148.8-7,128.4,1.9c-10.6,4.6-16.8,17.2-19,35.1c2.6-14.1,8.2-23.9,17.1-27.8c19.2-8.4,48.7,13,76.9,52.1
		c-1.6,2-2.5,4.5-2.5,7.2c0,1.4,0.3,2.8,0.7,4C187.5,83.4,173,96.5,159,111.5c-26,27.8-45.4,56.7-55.9,80.9c-0.1,0-0.2,0-0.3,0
		c-3.9,0-7.3,1.9-9.5,4.8c-43.6-11.8-71.8-30.5-71.8-51.5c0-23.4,34.9-44,87.3-55.3C48.5,101.9,7.4,124.7,7.4,150.9
		c0,23.6,33.4,44.5,84.2,56.8c0.8,2.5,2.3,4.7,4.4,6.2c-3,14-1.6,25,5.1,31.3c6.8,6.3,18,7,31.9,2.9c-11.2,2.6-20.2,1.5-25.9-3.8
		c-6.1-5.7-7.6-15.7-5-28.3c0.3,0,0.6,0.1,0.8,0.1c3.6,0,6.7-1.6,8.9-4.1c26.4,4.9,56.3,7.6,88,7.6c22.6,0,44.2-1.4,64.3-4
		c1.7,2.6,4.4,4.6,7.5,5.3c7.8,43.6,3.2,76.5-15,84.5c-19.1,8.4-48.3-12.7-76.2-51.3c31,45,64.3,70.4,85.6,61
		c20.2-8.9,24.7-46.7,14.8-96.1C283.1,217.6,284.8,215.2,285.5,212.4 M96.5,208.9c0.2,0.1,0.5,0.1,0.7,0.2c0,0.2-0.1,0.4-0.1,0.5
		C96.9,209.4,96.7,209.1,96.5,208.9 M114.6,202.1c-0.6-3.3-2.6-6.2-5.4-7.9c9.9-22.9,28.3-50.1,52.8-76.3
		c14.5-15.5,29.6-28.9,44-39.7c1.9,1.3,4.2,2.1,6.7,2.1c1.1,0,2.1-0.2,3.1-0.5c10.1,16.2,19.8,34.4,28.5,54.2
		c10,22.7,17.6,45,22.8,65.7c-2.3,1.7-4,4.2-4.6,7.1c-18.5,2.2-38.3,3.5-58.9,3.5C171.3,210.4,140.9,207.4,114.6,202.1"/>
	<path class="st1" d="M233.6,157.1c0,20.6-16.7,37.2-37.2,37.2c-20.6,0-37.2-16.7-37.2-37.2c0-20.6,16.7-37.2,37.2-37.2
		C217,119.9,233.6,136.6,233.6,157.1"/>
	<path class="st1" d="M212.7,60.6c-4.4,0-7.9,3.6-7.9,7.9c0,4.4,3.6,7.9,7.9,7.9c4.4,0,7.9-3.6,7.9-7.9
		C220.6,64.2,217.1,60.6,212.7,60.6"/>
	<path class="st1" d="M102.9,196.3c-4.4,0-7.9,3.6-7.9,7.9c0,4.4,3.6,7.9,7.9,7.9c4.4,0,7.9-3.6,7.9-7.9
		C110.8,199.9,107.3,196.3,102.9,196.3"/>
	<path class="st1" d="M274.1,201.4c-4.4,0-7.9,3.6-7.9,7.9c0,4.4,3.6,7.9,7.9,7.9s7.9-3.6,7.9-7.9
		C282.1,205,278.5,201.4,274.1,201.4"/>
	<g>
		<path class="st0" d="M39.6,399l-13.9-20l-3.6,4.4V399H8.4v-53h13.7v21.8L38.4,346h16.9l-20.6,24.8L56.4,399H39.6z"/>
		<path class="st0" d="M70.1,372.6c0-16.1,12.2-27.4,28.4-27.4c16.2,0,28.3,11.3,28.3,27.4S114.7,400,98.5,400
			C82.3,400,70.1,388.7,70.1,372.6z M112.9,372.6c0-8.7-5.6-15.3-14.4-15.3c-8.8,0-14.5,6.7-14.5,15.3c0,8.6,5.6,15.3,14.5,15.3
			C107.3,387.9,112.9,381.2,112.9,372.6z"/>
		<path class="st0" d="M145.9,391.6l7.2-10.3c3.8,3.8,9.7,7,16.9,7c4.7,0,7.6-1.8,7.6-4.4c0-7.2-30.1-1.4-30.1-21.9
			c0-8.9,7.6-16.9,21.1-16.9c8.5,0,15.9,2.5,21.5,7.4l-7.5,9.8c-4.5-3.7-10.3-5.5-15.5-5.5c-4,0-5.7,1.6-5.7,3.8
			c0,6.8,30,1.8,30,21.5c0,10.7-7.9,17.7-22.1,17.7C158.7,400,151.2,396.7,145.9,391.6z"/>
		<path class="st0" d="M260.3,399v-34.5L246.9,399h-6l-13.4-34.5V399h-13.7v-53h19l11.1,28.8L255,346h19v53H260.3z"/>
		<path class="st0" d="M299.5,399v-53h13.7v53H299.5z"/>
		<path class="st0" d="M335.9,372.6c0-16.1,12.2-27.4,28.4-27.4c16.2,0,28.3,11.3,28.3,27.4S380.5,400,364.3,400
			C348.1,400,335.9,388.7,335.9,372.6z M378.7,372.6c0-8.7-5.6-15.3-14.4-15.3c-8.8,0-14.5,6.7-14.5,15.3c0,8.6,5.6,15.3,14.5,15.3
			C373.1,387.9,378.7,381.2,378.7,372.6z"/>
	</g>
</g>
</svg>
