<?xml version="1.0" encoding="utf-8"?>
<!-- Generator: Adobe Illustrator 19.1.0, SVG Export Plug-In . SVG Version: 6.00 Build 0)  -->
<svg version="1.1" id="Calque_1" xmlns="http://www.w3.org/2000/svg" xmlns:xlink="http://www.w3.org/1999/xlink" x="0px" y="0px"
	 viewBox="0 0 74.5 93.3" style="enable-background:new 0 0 74.5 93.3;" xml:space="preserve">
<style type="text/css">
	.st0{fill:#0D2240;}
	.st1{fill:#67C8F0;}
	.st2{fill:#FFFFFF;}
	.st3{opacity:0;fill:#FFFFFF;}
	.st4{fill:#C6C6C6;}
</style>
<path class="st2" d="M53.5,40.6c12-2.1,20.3-6.6,20.3-11.7c0-2.5-1.9-4.8-5.2-6.8c2.5,1.7,4,3.7,4,5.7c0,4.8-7.8,9-19.3,11.1
	c-0.3-0.6-0.9-1.1-1.7-1.2c-1-3.8-2.5-8-4.3-12.1c-1.8-4.1-3.8-7.8-5.9-11.1c0.3-0.4,0.4-0.8,0.4-1.3c0-0.2,0-0.3-0.1-0.5
	c5.1-3.1,9.4-4,11.4-2.1c2.3,2.2,1.1,7.5-2.6,13.8c4.5-7.1,6-13.3,3.4-15.7c-2.3-2.1-7.3-0.9-13,2.8c-0.4-0.3-0.9-0.5-1.4-0.5
	c-0.2,0-0.4,0-0.5,0.1C33.5,3.1,27.5-1.2,23.6,0.5c-2,0.9-3.2,3.3-3.6,6.7c0.5-2.7,1.6-4.6,3.3-5.3c3.7-1.6,9.3,2.5,14.6,9.9
	c-0.3,0.4-0.5,0.9-0.5,1.4c0,0.3,0.1,0.5,0.1,0.8c-2.7,2.1-5.4,4.6-8.1,7.4c-4.9,5.3-8.7,10.8-10.6,15.4c0,0,0,0-0.1,0
	c-0.7,0-1.4,0.4-1.8,0.9c-8.3-2.3-13.7-5.8-13.7-9.8c0-4.5,6.7-8.4,16.6-10.5C8.4,19.5,0.6,23.9,0.6,28.9c0,4.5,6.4,8.5,16,10.8
	c0.1,0.5,0.4,0.9,0.8,1.2c-0.6,2.7-0.3,4.8,1,6c1.3,1.2,3.4,1.3,6.1,0.6c-2.1,0.5-3.9,0.3-4.9-0.7c-1.2-1.1-1.4-3-1-5.4
	c0.1,0,0.1,0,0.2,0c0.7,0,1.3-0.3,1.7-0.8c5,0.9,10.7,1.5,16.8,1.5c4.3,0,8.4-0.3,12.3-0.8c0.3,0.5,0.8,0.9,1.4,1
	c1.5,8.3,0.6,14.6-2.9,16.1c-3.6,1.6-9.2-2.4-14.5-9.8c5.9,8.6,12.2,13.4,16.3,11.6c3.9-1.7,4.7-8.9,2.8-18.3
	C53.1,41.6,53.4,41.1,53.5,40.6 M17.5,39.9c0,0,0.1,0,0.1,0c0,0,0,0.1,0,0.1C17.6,40,17.6,40,17.5,39.9 M21,38.6
	c-0.1-0.6-0.5-1.2-1-1.5c1.9-4.4,5.4-9.5,10.1-14.5c2.8-3,5.6-5.5,8.4-7.6c0.4,0.3,0.8,0.4,1.3,0.4c0.2,0,0.4,0,0.6-0.1
	c1.9,3.1,3.8,6.6,5.4,10.3C47.6,30,49,34.3,50,38.2c-0.4,0.3-0.8,0.8-0.9,1.4c-3.5,0.4-7.3,0.7-11.2,0.7C31.8,40.2,26,39.6,21,38.6"
	/>
<path class="st2" d="M43.7,30.1c0,3.9-3.2,7.1-7.1,7.1c-3.9,0-7.1-3.2-7.1-7.1c0-3.9,3.2-7.1,7.1-7.1C40.5,23,43.7,26.1,43.7,30.1"
	/>
<path class="st3" d="M39.7,11.7c-0.8,0-1.5,0.7-1.5,1.5c0,0.8,0.7,1.5,1.5,1.5c0.8,0,1.5-0.7,1.5-1.5C41.2,12.3,40.5,11.7,39.7,11.7
	"/>
<path class="st3" d="M18.8,37.5c-0.8,0-1.5,0.7-1.5,1.5c0,0.8,0.7,1.5,1.5,1.5c0.8,0,1.5-0.7,1.5-1.5C20.3,38.2,19.6,37.5,18.8,37.5
	"/>
<path class="st3" d="M51.4,38.5c-0.8,0-1.5,0.7-1.5,1.5c0,0.8,0.7,1.5,1.5,1.5c0.8,0,1.5-0.7,1.5-1.5C52.9,39.2,52.2,38.5,51.4,38.5
	"/>
<g>
	<path class="st2" d="M6.7,76.1L4,72.3l-0.7,0.8v3H0.7V66h2.6v4.2L6.5,66h3.2l-3.9,4.7l4.1,5.4H6.7z"/>
	<path class="st2" d="M12.5,71.1c0-3.1,2.3-5.2,5.4-5.2c3.1,0,5.4,2.2,5.4,5.2s-2.3,5.2-5.4,5.2C14.8,76.3,12.5,74.2,12.5,71.1z
		 M20.7,71.1c0-1.7-1.1-2.9-2.7-2.9c-1.7,0-2.8,1.3-2.8,2.9c0,1.6,1.1,2.9,2.8,2.9C19.6,74,20.7,72.7,20.7,71.1z"/>
	<path class="st2" d="M26.9,74.7l1.4-2c0.7,0.7,1.8,1.3,3.2,1.3c0.9,0,1.4-0.3,1.4-0.8c0-1.4-5.7-0.3-5.7-4.2c0-1.7,1.4-3.2,4-3.2
		c1.6,0,3,0.5,4.1,1.4L34,69.2c-0.8-0.7-2-1-3-1c-0.8,0-1.1,0.3-1.1,0.7c0,1.3,5.7,0.3,5.7,4.1c0,2-1.5,3.4-4.2,3.4
		C29.4,76.3,28,75.7,26.9,74.7z"/>
	<path class="st2" d="M48.7,76.1v-6.6l-2.6,6.6H45l-2.5-6.6v6.6h-2.6V66h3.6l2.1,5.5l2.1-5.5h3.6v10.1H48.7z"/>
	<path class="st2" d="M56.2,76.1V66h2.6v10.1H56.2z"/>
	<path class="st2" d="M63.1,71.1c0-3.1,2.3-5.2,5.4-5.2c3.1,0,5.4,2.2,5.4,5.2s-2.3,5.2-5.4,5.2C65.5,76.3,63.1,74.2,63.1,71.1z
		 M71.3,71.1c0-1.7-1.1-2.9-2.7-2.9c-1.7,0-2.8,1.3-2.8,2.9c0,1.6,1.1,2.9,2.8,2.9C70.2,74,71.3,72.7,71.3,71.1z"/>
</g>
</svg>
