<?xml version="1.0" encoding="utf-8"?>
<!-- Generator: Adobe Illustrator 18.0.0, SVG Export Plug-In . SVG Version: 6.00 Build 0)  -->
<!DOCTYPE svg PUBLIC "-//W3C//DTD SVG 1.1//EN" "http://www.w3.org/Graphics/SVG/1.1/DTD/svg11.dtd">
<svg version="1.1" id="Calque_1" xmlns="http://www.w3.org/2000/svg" xmlns:xlink="http://www.w3.org/1999/xlink" x="0px" y="0px"
	 viewBox="0 0 614 499" enable-background="new 0 0 614 499" xml:space="preserve">
<g>
	<path fill="#1E2538" d="M407.5,317.4L240.9,469.5c-1.6,1.5-3.7,1.4-5.2-0.2c-1.5-1.6-1.4-3.7,0.2-5.2L402.5,312
		c1.6-1.5,3.7-1.4,5.2,0.2C409.2,313.8,409.1,315.9,407.5,317.4z"/>
</g>
<g>
	<path fill="#1E2538" d="M407.5,317.4c-1.6,1.5-3.7,1.4-5.2-0.2L287.6,191.5c-1.5-1.6-1.4-3.7,0.2-5.2s3.7-1.4,5.2,0.2l114.7,125.6
		C409.2,313.8,409.1,315.9,407.5,317.4z"/>
</g>
<g>
	<path fill="#1E2538" d="M190.7,414.5c-1.1,1-2.1,0.9-3.1,0.9c-1.5-0.6-3-2.2-2.4-4.8l53.4-197c0.6-1.5,2.2-3,4.8-2.4
		c1.5,0.6,3,2.2,2.4,4.8l-53.9,196.5C191.8,413.5,191.2,414,190.7,414.5z"/>
</g>
<g>
	<path fill="#1E2538" d="M240.9,469.5c-0.5,0.5-1.1,1-2.1,0.9c-2.1-0.1-3.5-1.7-3.4-3.8l-0.6-248.5c0.1-2.1,1.7-3.5,3.8-3.4
		c2.1,0.1,3.5,1.7,3.4,3.8l0.1,248C242.5,468,241.5,469,240.9,469.5z"/>
</g>
<g>
	<circle fill="#FDE6E2" cx="188.2" cy="411.8" r="13.9"/>
	<path fill="#1E2538" d="M200.1,424.7c-7,6.4-18.3,5.9-24.7-1.1c-6.4-7-5.9-18.3,1.1-24.7c7-6.4,18.3-5.9,24.7,1.1
		C207.6,407,207.1,418.3,200.1,424.7z M181.4,404.3c-4.3,3.9-4.6,10.1-0.7,14.4s10.1,4.6,14.4,0.7c4.3-3.9,4.6-10.1,0.7-14.4
		C191.9,400.6,185.7,400.3,181.4,404.3z"/>
</g>
<g>
	<circle fill="#FDE6E2" cx="238.5" cy="466.8" r="13.9"/>
	<path fill="#1E2538" d="M250.3,479.7c-7,6.4-18.3,5.9-24.7-1.1c-6.4-7-5.9-18.3,1.1-24.7c7-6.4,18.3-5.9,24.7,1.1
		C257.8,462,257.3,473.3,250.3,479.7z M231.6,459.2c-4.3,3.9-4.6,10.1-0.7,14.4s10.1,4.6,14.4,0.7c4.3-3.9,4.6-10.1,0.7-14.4
		C242.1,455.6,235.9,455.3,231.6,459.2z"/>
</g>
<g>
	<circle fill="#FDE6E2" cx="405" cy="314.7" r="13.9"/>
	<path fill="#1E2538" d="M416.8,327.6c-7,6.4-18.3,5.9-24.7-1.1s-5.9-18.3,1.1-24.7s18.3-5.9,24.7,1.1S423.8,321.2,416.8,327.6z
		 M398.1,307.1c-4.3,3.9-4.6,10.1-0.7,14.4c3.9,4.3,10.1,4.6,14.4,0.7s4.6-10.1,0.7-14.4S402.4,303.2,398.1,307.1z"/>
</g>
<g>
	<path fill="#1E2538" d="M28,53.7v229.2c0,2.2-1.5,3.6-3.6,3.6s-3.6-1.5-3.6-3.6V53.7c0-2.2,1.5-3.6,3.6-3.6S28,51.5,28,53.7z"/>
</g>
<g>
	<path fill="#1E2538" d="M592.9,53.7v225.5c0,2.2-1.5,3.6-3.6,3.6s-3.6-1.5-3.6-3.6V53.7c0-2.2,1.5-3.6,3.6-3.6
		S592.9,51.5,592.9,53.7z"/>
</g>
<g>
	<path fill="#1E2538" d="M592.9,53.7c0,2.2-1.5,3.6-3.6,3.6H419.2c-2.2,0-3.6-1.5-3.6-3.6s1.5-3.6,3.6-3.6h170.1
		C591.5,50,592.9,51.5,592.9,53.7z"/>
</g>
<g>
	<path fill="#1E2538" d="M147,25.9c0,1.5-1.5,2.9-2.9,3.6l-119,27.7c-1.5,0.7-3.6-0.7-4.4-2.9s0.7-3.6,2.9-4.4l119-27.7
		c2.2-0.7,3.6,0.7,4.4,2.9C147,25.2,147,25.2,147,25.9z"/>
</g>
<g>
	<path fill="#1E2538" d="M518.5,279.2c0,1.5-0.7,2.2-1.5,2.9c-1.5,0.7-3.6,0.7-5.1-1.5L402.4,108.4c-0.7-1.5-0.7-3.6,1.5-5.1
		c1.5-0.7,3.6-0.7,5.1,1.5L517.8,277C518.5,277.8,518.5,278.5,518.5,279.2z"/>
</g>
<g>
	<path fill="#1E2538" d="M592.9,279.2c0,0.7,0,1.5-0.7,2.2c-1.5,1.5-3.6,1.5-5.1,0L403.2,114.3c-1.5-1.5-1.5-3.6,0-5.1
		s3.6-1.5,5.1,0l183.2,167.2C592.9,277,592.9,278.5,592.9,279.2z"/>
</g>
<g>
	<path fill="#1E2538" d="M363.7,75.6c0,1.5-0.7,2.2-1.5,2.9L26.5,285.8c-1.5,0.7-3.6,0.7-5.1-1.5c-0.7-1.5-0.7-3.6,1.5-5.1
		L358.6,71.9c1.5-0.7,3.6-0.7,5.1,1.5C363.7,74.9,363.7,75.6,363.7,75.6z"/>
</g>
<g>
	<path fill="#1E2538" d="M299.5,188c0,1.5-0.7,2.2-1.5,2.9l-57.7,34.3c-1.5,0.7-3.6,0.7-5.1-1.5c-0.7-1.5-0.7-3.6,1.5-5.1l56.9-34.3
		c1.5-0.7,3.6-0.7,5.1,1.5C299.5,186.5,299.5,187.3,299.5,188z"/>
</g>
<g>
	<path fill="#1E2538" d="M147,25.9v0.7L79.8,283.6c-0.7,2.2-2.2,2.9-4.4,2.9c-2.2-0.7-2.9-2.2-2.9-4.4l67.9-256.9
		c0.7-2.2,2.2-2.9,4.4-2.9C146.2,23,147,24.5,147,25.9z"/>
</g>
<g>
	<path fill="#1E2538" d="M242.6,222.3c0,1.5-0.7,2.9-2.2,3.6s-3.6,0-5.1-1.5L140.4,28.1c-0.7-1.5,0-3.6,1.5-5.1
		c1.5-0.7,3.6,0,5.1,1.5l94.9,196.4C241.8,221.6,242.6,221.6,242.6,222.3z"/>
</g>
<g>
	<path fill="#1E2538" d="M299.5,188c0,0.7-0.7,2.2-1.5,2.9c-1.5,1.5-3.6,1.5-5.1,0l-152.6-162c-1.5-1.5-1.5-3.6,0-5.1
		c1.5-1.5,3.6-1.5,5.1,0l153.3,161.3C299.5,185.8,299.5,187.3,299.5,188z"/>
</g>
<g>
	<path fill="#1E2538" d="M363.7,75.6v0.7c-0.7,2.2-2.2,2.9-4.4,2.9L142.6,28.9c-2.2-0.7-2.9-2.2-2.9-4.4c0.7-2.2,2.2-2.9,4.4-2.9
		l216.8,50.4C363,72.7,363.7,74.1,363.7,75.6z"/>
</g>
<g>
	<path fill="#1E2538" d="M409,112.1c0,1.5-0.7,2.2-1.5,2.9l-109.5,75.9c-1.5,1.5-3.6,0.7-5.1-0.7c-1.5-1.5-0.7-3.6,0.7-5.1
		l109.5-75.9c1.5-1.5,3.6-0.7,5.1,0.7C409,110.6,409,111.4,409,112.1z"/>
</g>
<g>
	<circle fill="#A8E9B8" cx="24.3" cy="282.9" r="13.9"/>
	<path fill="#1E2538" d="M41.8,282.9c0,9.5-8,17.5-17.5,17.5s-17.5-8-17.5-17.5c0-9.5,8-17.5,17.5-17.5
		C33.8,265.4,41.8,273.4,41.8,282.9z M14.1,282.9c0,5.8,4.4,10.2,10.2,10.2s10.2-4.4,10.2-10.2c0-5.8-4.4-10.2-10.2-10.2
		C18.5,272.7,14.1,277,14.1,282.9z"/>
</g>
<g>
	<circle fill="#A8E9B8" cx="76.9" cy="282.9" r="13.9"/>
	<path fill="#1E2538" d="M94.4,282.9c0,9.5-8,17.5-17.5,17.5s-17.5-8-17.5-17.5c0-9.5,8-17.5,17.5-17.5S94.4,273.4,94.4,282.9z
		 M66.7,282.9c0,5.8,4.4,10.2,10.2,10.2s10.2-4.4,10.2-10.2c0-5.8-4.4-10.2-10.2-10.2S66.7,277,66.7,282.9z"/>
</g>
<g>
	<circle fill="#FDD0A7" cx="514.8" cy="279.2" r="13.9"/>
	<path fill="#1E2538" d="M532.4,279.2c0,9.5-8,17.5-17.5,17.5s-17.5-8-17.5-17.5c0-9.5,8-17.5,17.5-17.5
		C524.3,261.7,532.4,269.7,532.4,279.2z M504.6,279.2c0,5.8,4.4,10.2,10.2,10.2c5.8,0,10.2-4.4,10.2-10.2c0-5.8-4.4-10.2-10.2-10.2
		C509,269,504.6,273.4,504.6,279.2z"/>
</g>
<g>
	<circle fill="#FDD0A7" cx="589.3" cy="279.2" r="13.9"/>
	<path fill="#1E2538" d="M606.8,279.2c0,9.5-8,17.5-17.5,17.5s-17.5-8-17.5-17.5c0-9.5,8-17.5,17.5-17.5
		C598.8,261.7,606.8,269.7,606.8,279.2z M579.1,279.2c0,5.8,4.4,10.2,10.2,10.2c5.8,0,10.2-4.4,10.2-10.2c0-5.8-4.4-10.2-10.2-10.2
		C583.5,269,579.1,273.4,579.1,279.2z"/>
</g>
<g>
	<circle fill="#FDE6E2" cx="295.9" cy="188" r="13.9"/>
	<path fill="#1E2538" d="M313.4,188c0,9.5-8,17.5-17.5,17.5c-9.5,0-17.5-8-17.5-17.5c0-9.5,8-17.5,17.5-17.5
		C305.4,170.5,313.4,178.5,313.4,188z M285.6,188c0,5.8,4.4,10.2,10.2,10.2c5.8,0,10.2-4.4,10.2-10.2c0-5.8-4.4-10.2-10.2-10.2
		C290,177.8,285.6,182.2,285.6,188z"/>
</g>
<g>
	<circle fill="#FDE6E2" cx="238.9" cy="222.3" r="13.9"/>
	<path fill="#1E2538" d="M256.4,222.3c0,9.5-8,17.5-17.5,17.5s-17.5-8-17.5-17.5s8-17.5,17.5-17.5
		C248.4,204.8,256.4,212.8,256.4,222.3z M228,222.3c0,5.8,4.4,10.2,10.2,10.2s10.2-4.4,10.2-10.2c0-5.8-4.4-10.2-10.2-10.2
		C233.1,212.1,228,216.5,228,222.3z"/>
</g>
<g>
	<circle fill="#A8E9B8" cx="143.3" cy="25.9" r="13.9"/>
	<path fill="#1E2538" d="M161.6,25.9c0,9.5-8,17.5-17.5,17.5s-17.5-8-17.5-17.5s8-17.5,17.5-17.5S161.6,16.5,161.6,25.9z
		 M133.1,25.9c0,5.8,4.4,10.2,10.2,10.2c5.8,0,10.2-4.4,10.2-10.2s-4.4-10.2-10.2-10.2C138.2,15.7,133.1,20.1,133.1,25.9z"/>
</g>
<g>
	<circle fill="#FDD0A7" stroke="#1E2538" stroke-miterlimit="10" cx="405.4" cy="112.1" r="13.9"/>
	<path fill="#1E2538" d="M422.9,112.1c0,9.5-8,17.5-17.5,17.5c-9.5,0-17.5-8-17.5-17.5s8-17.5,17.5-17.5S422.9,101.9,422.9,112.1z
		 M395.1,112.1c0,5.8,4.4,10.2,10.2,10.2c5.8,0,10.2-4.4,10.2-10.2c0-5.8-4.4-10.2-10.2-10.2C399.5,101.9,395.1,106.2,395.1,112.1z"
		/>
</g>
<g>
	<circle fill="#FDE6E2" cx="360.1" cy="75.6" r="13.9"/>
	<path fill="#1E2538" d="M377.6,75.6c0,9.5-8,17.5-17.5,17.5c-9.5,0-17.5-8-17.5-17.5s8-17.5,17.5-17.5S377.6,66.1,377.6,75.6z
		 M349.9,75.6c0,5.8,4.4,10.2,10.2,10.2c5.8,0,10.2-4.4,10.2-10.2s-4.4-10.2-10.2-10.2S349.9,70.5,349.9,75.6z"/>
</g>
<g>
	<circle fill="#FDD0A7" cx="419.2" cy="53.7" r="13.9"/>
	<path fill="#1E2538" d="M436.7,53.7c0,9.5-8,17.5-17.5,17.5c-9.5,0-17.5-8-17.5-17.5s8-17.5,17.5-17.5
		C428.7,36.2,436.7,44.2,436.7,53.7z M409,53.7c0,5.8,4.4,10.2,10.2,10.2c5.8,0,10.2-4.4,10.2-10.2s-4.4-10.2-10.2-10.2
		C413.4,43.5,409,47.8,409,53.7z"/>
</g>
<g>
	<circle fill="#FDD0A7" cx="589.3" cy="53.7" r="13.9"/>
	<path fill="#1E2538" d="M606.8,53.7c0,9.5-8,17.5-17.5,17.5s-17.5-8-17.5-17.5s8-17.5,17.5-17.5S606.8,44.2,606.8,53.7z
		 M579.1,53.7c0,5.8,4.4,10.2,10.2,10.2c5.8,0,10.2-4.4,10.2-10.2s-4.4-10.2-10.2-10.2C583.5,43.5,579.1,47.8,579.1,53.7z"/>
</g>
<g>
	<circle fill="#A8E9B8" cx="24.3" cy="53.7" r="13.9"/>
	<path fill="#1E2538" d="M41.8,53.7c0,9.5-8,17.5-17.5,17.5s-17.5-8-17.5-17.5s8-17.5,17.5-17.5S41.8,44.2,41.8,53.7z M14.1,53.7
		c0,5.8,4.4,10.2,10.2,10.2s10.2-4.4,10.2-10.2s-4.4-10.2-10.2-10.2S14.1,47.8,14.1,53.7z"/>
</g>
<g>
	<line fill="none" x1="373.2" y1="70.5" x2="406.1" y2="58.1"/>
	<path fill="#1E2538" d="M409.7,58.1c0,1.5-0.7,2.9-2.2,3.6l-32.8,12.4c-2.2,0.7-3.6,0-4.4-2.2s0-3.6,2.2-4.4l32.8-12.4
		c2.2-0.7,3.6,0,4.4,2.2C409.7,57.3,409.7,57.3,409.7,58.1z"/>
</g>
<g>
	<line fill="none" x1="419.2" y1="67.6" x2="412.6" y2="99.7"/>
	<path fill="#1E2538" d="M422.9,67.6v0.7l-6.6,32.1c-0.7,2.2-2.2,2.9-4.4,2.9c-2.2-0.7-2.9-2.2-2.9-4.4l6.6-32.1
		c0.7-2.2,2.2-2.9,4.4-2.9C422.1,64.6,422.9,66.1,422.9,67.6z"/>
</g>
<g>
	<line fill="none" x1="393.7" y1="104.8" x2="369.6" y2="86.5"/>
	<path fill="#1E2538" d="M397.3,104.8c0,0.7,0,1.5-0.7,2.2c-1.5,1.5-3.6,2.2-5.1,0.7l-24.1-18.2c-1.5-1.5-2.2-3.6-0.7-5.1
		c1.5-1.5,3.6-2.2,5.1-0.7l24.1,18.2C396.6,102.6,397.3,104.1,397.3,104.8z"/>
</g>
</svg>
